<svg width="43" height="36" viewBox="0 0 43 36" fill="none" xmlns="http://www.w3.org/2000/svg">
<path d="M10.7143 2C4.80469 2 0 6.80123 0 12.5837C0 14.6012 0.92634 16.3486 1.78571 17.6109C2.64509 18.8732 3.52679 19.6835 3.52679 19.6835L18.9732 34.9857L20 36L21.0268 34.9857L36.4732 19.6835C36.4732 19.6835 40 16.6132 40 12.5837C40 6.80123 35.1953 2 29.2857 2C24.3806 2 21.2221 4.91602 20 6.14527C18.7779 4.91602 15.6194 2 10.7143 2ZM10.7143 4.82231C14.9833 4.82231 18.9286 8.92348 18.9286 8.92348L20 10.1141L21.0714 8.92348C21.0714 8.92348 25.0167 4.82231 29.2857 4.82231C33.6328 4.82231 37.1429 8.34468 37.1429 12.5837C37.1429 14.761 34.4643 17.6991 34.4643 17.6991L20 31.987L5.53571 17.6991C5.53571 17.6991 4.84375 17.0431 4.15179 16.0233C3.45982 15.0036 2.85714 13.6751 2.85714 12.5837C2.85714 8.34468 6.36719 4.82231 10.7143 4.82231Z" fill="#121212"/>
<circle cx="37" cy="6" r="6" fill="#EF1D1D"/>
</svg>
