<svg width="36" height="36" viewBox="0 0 36 36" fill="none" xmlns="http://www.w3.org/2000/svg">
<path fill-rule="evenodd" clip-rule="evenodd" d="M14.5774 0.0741201C9.0839 0.592778 4.10915 4.0667 1.63978 9.10561C0.16109 12.1355 -0.334509 15.5514 0.222169 18.8764C0.778847 22.2015 2.36002 25.2698 4.74495 27.653C7.17289 30.0806 10.1682 31.6078 13.6768 32.2093C14.8908 32.4164 17.3385 32.4308 18.5759 32.2381C19.6162 32.0692 20.6405 31.8132 21.6379 31.4727C22.9869 31.0009 25.015 29.9005 25.9858 29.1135L26.2974 28.8596L29.7682 32.3173C32.8896 35.4311 33.2732 35.7877 33.592 35.8939C34.2927 36.1262 34.9717 35.9731 35.4724 35.4725C35.9731 34.9719 36.1262 34.2929 35.8939 33.5924C35.7876 33.2736 35.431 32.89 32.3168 29.7691L28.8586 26.2987L29.1126 25.9872C29.9177 24.9931 30.9948 22.9959 31.4937 21.5678C31.7981 20.6926 32.0665 19.603 32.2394 18.5423C32.4195 17.4365 32.4195 14.9657 32.2394 13.86C31.944 12.0447 31.5207 10.6904 30.7516 9.10561C27.7978 3.01498 21.3803 -0.568799 14.5774 0.0741201ZM17.5313 3.67051C21.9423 4.17476 25.6544 6.79866 27.5492 10.7498C28.7656 13.2676 29.1068 16.1193 28.5189 18.853C27.931 21.5867 26.4475 24.046 24.3035 25.8413C22.2192 27.5994 19.6193 28.6318 16.8965 28.7825C14.1737 28.9333 11.4757 28.1942 9.20998 26.6769C3.50216 22.877 1.88654 15.162 5.58968 9.39375C8.14731 5.41017 12.8843 3.13924 17.5313 3.67051Z" fill="#121212"/>
</svg>
