<svg xmlns="http://www.w3.org/2000/svg" xmlns:xlink="http://www.w3.org/1999/xlink" width="130" zoomAndPan="magnify" viewBox="0 0 97.5 37.5" height="50" preserveAspectRatio="xMidYMid meet" version="1.0"><defs><g/></defs><g fill="#511c1f" fill-opacity="1"><g transform="translate(9.750665, 12.833255)"><g><path d="M 0.75 -6.09375 C 0.75 -6.46875 0.820312 -6.796875 0.96875 -7.078125 C 1.113281 -7.367188 1.304688 -7.613281 1.546875 -7.8125 C 1.796875 -8.007812 2.078125 -8.160156 2.390625 -8.265625 C 2.710938 -8.367188 3.039062 -8.421875 3.375 -8.421875 C 3.65625 -8.421875 3.910156 -8.394531 4.140625 -8.34375 C 4.378906 -8.300781 4.585938 -8.253906 4.765625 -8.203125 C 4.953125 -8.148438 5.101562 -8.097656 5.21875 -8.046875 C 5.34375 -8.003906 5.4375 -7.984375 5.5 -7.984375 C 5.601562 -7.984375 5.710938 -8.019531 5.828125 -8.09375 C 5.941406 -8.164062 6.03125 -8.25 6.09375 -8.34375 L 6.34375 -8.34375 L 6.34375 -5.484375 L 6.0625 -5.484375 C 5.96875 -5.785156 5.835938 -6.085938 5.671875 -6.390625 C 5.515625 -6.703125 5.328125 -6.984375 5.109375 -7.234375 C 4.890625 -7.492188 4.632812 -7.703125 4.34375 -7.859375 C 4.050781 -8.023438 3.738281 -8.109375 3.40625 -8.109375 C 3.226562 -8.109375 3.050781 -8.082031 2.875 -8.03125 C 2.695312 -7.976562 2.535156 -7.898438 2.390625 -7.796875 C 2.242188 -7.691406 2.128906 -7.5625 2.046875 -7.40625 C 1.960938 -7.257812 1.921875 -7.085938 1.921875 -6.890625 C 1.921875 -6.640625 1.988281 -6.425781 2.125 -6.25 C 2.269531 -6.082031 2.457031 -5.925781 2.6875 -5.78125 C 2.925781 -5.644531 3.191406 -5.519531 3.484375 -5.40625 C 3.785156 -5.289062 4.085938 -5.171875 4.390625 -5.046875 C 4.703125 -4.921875 5.003906 -4.78125 5.296875 -4.625 C 5.597656 -4.476562 5.863281 -4.300781 6.09375 -4.09375 C 6.320312 -3.894531 6.507812 -3.660156 6.65625 -3.390625 C 6.800781 -3.117188 6.875 -2.796875 6.875 -2.421875 C 6.875 -1.960938 6.800781 -1.566406 6.65625 -1.234375 C 6.507812 -0.910156 6.304688 -0.644531 6.046875 -0.4375 C 5.785156 -0.226562 5.457031 -0.078125 5.0625 0.015625 C 4.675781 0.109375 4.238281 0.15625 3.75 0.15625 C 3.519531 0.15625 3.289062 0.132812 3.0625 0.09375 C 2.832031 0.0625 2.613281 0.0234375 2.40625 -0.015625 C 2.207031 -0.0546875 2.035156 -0.09375 1.890625 -0.125 C 1.742188 -0.164062 1.632812 -0.1875 1.5625 -0.1875 C 1.53125 -0.1875 1.476562 -0.171875 1.40625 -0.140625 C 1.34375 -0.109375 1.238281 -0.015625 1.09375 0.140625 L 0.765625 0.140625 L 0.765625 -2.765625 L 1.015625 -2.765625 C 1.148438 -2.421875 1.296875 -2.085938 1.453125 -1.765625 C 1.617188 -1.453125 1.804688 -1.175781 2.015625 -0.9375 C 2.234375 -0.695312 2.476562 -0.503906 2.75 -0.359375 C 3.03125 -0.210938 3.363281 -0.140625 3.75 -0.140625 C 3.976562 -0.140625 4.207031 -0.164062 4.4375 -0.21875 C 4.664062 -0.28125 4.867188 -0.367188 5.046875 -0.484375 C 5.222656 -0.597656 5.363281 -0.734375 5.46875 -0.890625 C 5.582031 -1.054688 5.640625 -1.25 5.640625 -1.46875 C 5.640625 -1.84375 5.515625 -2.144531 5.265625 -2.375 C 5.023438 -2.613281 4.722656 -2.820312 4.359375 -3 C 4.003906 -3.175781 3.613281 -3.34375 3.1875 -3.5 C 2.769531 -3.65625 2.378906 -3.84375 2.015625 -4.0625 C 1.648438 -4.28125 1.347656 -4.546875 1.109375 -4.859375 C 0.867188 -5.179688 0.75 -5.59375 0.75 -6.09375 Z M 0.75 -6.09375 "/></g></g></g><g fill="#511c1f" fill-opacity="1"><g transform="translate(17.314548, 12.833255)"><g><path d="M 4.3125 -8.265625 L 4.3125 -7.953125 C 4.070312 -7.941406 3.875 -7.925781 3.71875 -7.90625 C 3.570312 -7.894531 3.457031 -7.859375 3.375 -7.796875 C 3.289062 -7.734375 3.234375 -7.632812 3.203125 -7.5 C 3.171875 -7.375 3.15625 -7.195312 3.15625 -6.96875 L 3.15625 -4.578125 L 7.5625 -4.578125 L 7.5625 -6.96875 C 7.5625 -7.195312 7.546875 -7.375 7.515625 -7.5 C 7.484375 -7.632812 7.425781 -7.734375 7.34375 -7.796875 C 7.257812 -7.859375 7.140625 -7.894531 6.984375 -7.90625 C 6.835938 -7.925781 6.644531 -7.941406 6.40625 -7.953125 L 6.40625 -8.265625 L 10.25 -8.265625 L 10.25 -7.953125 C 10.03125 -7.941406 9.851562 -7.925781 9.71875 -7.90625 C 9.59375 -7.894531 9.488281 -7.859375 9.40625 -7.796875 C 9.332031 -7.734375 9.28125 -7.632812 9.25 -7.5 C 9.226562 -7.375 9.21875 -7.195312 9.21875 -6.96875 L 9.21875 -1.296875 C 9.21875 -1.054688 9.226562 -0.875 9.25 -0.75 C 9.28125 -0.625 9.332031 -0.523438 9.40625 -0.453125 C 9.488281 -0.390625 9.59375 -0.347656 9.71875 -0.328125 C 9.851562 -0.316406 10.03125 -0.3125 10.25 -0.3125 L 10.25 0 L 6.40625 0 L 6.40625 -0.3125 C 6.644531 -0.3125 6.835938 -0.316406 6.984375 -0.328125 C 7.140625 -0.347656 7.257812 -0.390625 7.34375 -0.453125 C 7.425781 -0.523438 7.484375 -0.625 7.515625 -0.75 C 7.546875 -0.875 7.5625 -1.054688 7.5625 -1.296875 L 7.5625 -4.171875 L 3.15625 -4.171875 L 3.15625 -1.296875 C 3.15625 -1.054688 3.171875 -0.875 3.203125 -0.75 C 3.234375 -0.625 3.289062 -0.523438 3.375 -0.453125 C 3.457031 -0.390625 3.570312 -0.347656 3.71875 -0.328125 C 3.875 -0.316406 4.070312 -0.3125 4.3125 -0.3125 L 4.3125 0 L 0.46875 0 L 0.46875 -0.3125 C 0.675781 -0.3125 0.847656 -0.316406 0.984375 -0.328125 C 1.117188 -0.347656 1.222656 -0.390625 1.296875 -0.453125 C 1.378906 -0.523438 1.4375 -0.625 1.46875 -0.75 C 1.5 -0.875 1.515625 -1.054688 1.515625 -1.296875 L 1.515625 -6.96875 C 1.515625 -7.195312 1.5 -7.375 1.46875 -7.5 C 1.4375 -7.632812 1.378906 -7.734375 1.296875 -7.796875 C 1.222656 -7.859375 1.117188 -7.894531 0.984375 -7.90625 C 0.847656 -7.925781 0.675781 -7.941406 0.46875 -7.953125 L 0.46875 -8.265625 Z M 4.3125 -8.265625 "/></g></g></g><g fill="#511c1f" fill-opacity="1"><g transform="translate(28.01965, 12.833255)"><g><path d="M 2.640625 -2.859375 L 5.921875 -2.859375 L 4.234375 -6.390625 Z M 3.78125 -7.25 C 3.976562 -7.40625 4.140625 -7.539062 4.265625 -7.65625 C 4.390625 -7.78125 4.492188 -7.882812 4.578125 -7.96875 C 4.660156 -8.050781 4.722656 -8.117188 4.765625 -8.171875 C 4.804688 -8.234375 4.835938 -8.273438 4.859375 -8.296875 C 4.921875 -8.378906 4.972656 -8.421875 5.015625 -8.421875 C 5.035156 -8.421875 5.054688 -8.40625 5.078125 -8.375 C 5.097656 -8.351562 5.140625 -8.285156 5.203125 -8.171875 L 8.546875 -1.265625 C 8.628906 -1.097656 8.703125 -0.957031 8.765625 -0.84375 C 8.835938 -0.726562 8.914062 -0.632812 9 -0.5625 C 9.09375 -0.488281 9.207031 -0.429688 9.34375 -0.390625 C 9.476562 -0.359375 9.65625 -0.332031 9.875 -0.3125 L 9.875 0 L 5.890625 0 L 5.890625 -0.3125 C 6.203125 -0.3125 6.445312 -0.34375 6.625 -0.40625 C 6.800781 -0.476562 6.890625 -0.597656 6.890625 -0.765625 C 6.890625 -0.828125 6.875 -0.894531 6.84375 -0.96875 C 6.820312 -1.050781 6.796875 -1.128906 6.765625 -1.203125 C 6.734375 -1.285156 6.695312 -1.359375 6.65625 -1.421875 C 6.625 -1.492188 6.597656 -1.550781 6.578125 -1.59375 L 6.140625 -2.46875 L 2.5 -2.46875 L 2.171875 -1.671875 C 2.140625 -1.617188 2.109375 -1.550781 2.078125 -1.46875 C 2.046875 -1.382812 2.015625 -1.300781 1.984375 -1.21875 C 1.960938 -1.132812 1.941406 -1.050781 1.921875 -0.96875 C 1.898438 -0.894531 1.890625 -0.835938 1.890625 -0.796875 C 1.890625 -0.742188 1.898438 -0.6875 1.921875 -0.625 C 1.953125 -0.570312 2.003906 -0.519531 2.078125 -0.46875 C 2.148438 -0.414062 2.25 -0.375 2.375 -0.34375 C 2.5 -0.320312 2.664062 -0.3125 2.875 -0.3125 L 2.875 0 L 0.21875 0 L 0.21875 -0.3125 C 0.46875 -0.363281 0.671875 -0.429688 0.828125 -0.515625 C 0.984375 -0.609375 1.117188 -0.734375 1.234375 -0.890625 C 1.359375 -1.054688 1.476562 -1.257812 1.59375 -1.5 C 1.71875 -1.75 1.863281 -2.054688 2.03125 -2.421875 L 4.03125 -6.875 C 4.007812 -6.9375 3.976562 -7.007812 3.9375 -7.09375 C 3.894531 -7.175781 3.84375 -7.226562 3.78125 -7.25 Z M 3.78125 -7.25 "/></g></g></g><g fill="#511c1f" fill-opacity="1"><g transform="translate(38.101045, 12.833255)"><g><path d="M 4.3125 -8.265625 L 4.3125 -7.953125 C 4.070312 -7.941406 3.875 -7.925781 3.71875 -7.90625 C 3.570312 -7.894531 3.457031 -7.859375 3.375 -7.796875 C 3.289062 -7.734375 3.234375 -7.632812 3.203125 -7.5 C 3.171875 -7.375 3.15625 -7.195312 3.15625 -6.96875 L 3.15625 -4.578125 L 7.5625 -4.578125 L 7.5625 -6.96875 C 7.5625 -7.195312 7.546875 -7.375 7.515625 -7.5 C 7.484375 -7.632812 7.425781 -7.734375 7.34375 -7.796875 C 7.257812 -7.859375 7.140625 -7.894531 6.984375 -7.90625 C 6.835938 -7.925781 6.644531 -7.941406 6.40625 -7.953125 L 6.40625 -8.265625 L 10.25 -8.265625 L 10.25 -7.953125 C 10.03125 -7.941406 9.851562 -7.925781 9.71875 -7.90625 C 9.59375 -7.894531 9.488281 -7.859375 9.40625 -7.796875 C 9.332031 -7.734375 9.28125 -7.632812 9.25 -7.5 C 9.226562 -7.375 9.21875 -7.195312 9.21875 -6.96875 L 9.21875 -1.296875 C 9.21875 -1.054688 9.226562 -0.875 9.25 -0.75 C 9.28125 -0.625 9.332031 -0.523438 9.40625 -0.453125 C 9.488281 -0.390625 9.59375 -0.347656 9.71875 -0.328125 C 9.851562 -0.316406 10.03125 -0.3125 10.25 -0.3125 L 10.25 0 L 6.40625 0 L 6.40625 -0.3125 C 6.644531 -0.3125 6.835938 -0.316406 6.984375 -0.328125 C 7.140625 -0.347656 7.257812 -0.390625 7.34375 -0.453125 C 7.425781 -0.523438 7.484375 -0.625 7.515625 -0.75 C 7.546875 -0.875 7.5625 -1.054688 7.5625 -1.296875 L 7.5625 -4.171875 L 3.15625 -4.171875 L 3.15625 -1.296875 C 3.15625 -1.054688 3.171875 -0.875 3.203125 -0.75 C 3.234375 -0.625 3.289062 -0.523438 3.375 -0.453125 C 3.457031 -0.390625 3.570312 -0.347656 3.71875 -0.328125 C 3.875 -0.316406 4.070312 -0.3125 4.3125 -0.3125 L 4.3125 0 L 0.46875 0 L 0.46875 -0.3125 C 0.675781 -0.3125 0.847656 -0.316406 0.984375 -0.328125 C 1.117188 -0.347656 1.222656 -0.390625 1.296875 -0.453125 C 1.378906 -0.523438 1.4375 -0.625 1.46875 -0.75 C 1.5 -0.875 1.515625 -1.054688 1.515625 -1.296875 L 1.515625 -6.96875 C 1.515625 -7.195312 1.5 -7.375 1.46875 -7.5 C 1.4375 -7.632812 1.378906 -7.734375 1.296875 -7.796875 C 1.222656 -7.859375 1.117188 -7.894531 0.984375 -7.90625 C 0.847656 -7.925781 0.675781 -7.941406 0.46875 -7.953125 L 0.46875 -8.265625 Z M 4.3125 -8.265625 "/></g></g></g><g fill="#511c1f" fill-opacity="1"><g transform="translate(48.806148, 12.833255)"><g><path d="M 4.5 -8.265625 L 4.5 -7.953125 C 4.257812 -7.941406 4.0625 -7.925781 3.90625 -7.90625 C 3.757812 -7.894531 3.644531 -7.859375 3.5625 -7.796875 C 3.476562 -7.734375 3.421875 -7.632812 3.390625 -7.5 C 3.359375 -7.375 3.34375 -7.195312 3.34375 -6.96875 L 3.34375 -1.296875 C 3.34375 -1.054688 3.359375 -0.875 3.390625 -0.75 C 3.421875 -0.625 3.476562 -0.523438 3.5625 -0.453125 C 3.644531 -0.390625 3.757812 -0.347656 3.90625 -0.328125 C 4.0625 -0.316406 4.257812 -0.3125 4.5 -0.3125 L 4.5 0 L 0.546875 0 L 0.546875 -0.3125 C 0.785156 -0.3125 0.976562 -0.316406 1.125 -0.328125 C 1.28125 -0.347656 1.398438 -0.390625 1.484375 -0.453125 C 1.566406 -0.523438 1.625 -0.625 1.65625 -0.75 C 1.6875 -0.875 1.703125 -1.054688 1.703125 -1.296875 L 1.703125 -6.96875 C 1.703125 -7.195312 1.6875 -7.375 1.65625 -7.5 C 1.625 -7.632812 1.566406 -7.734375 1.484375 -7.796875 C 1.398438 -7.859375 1.28125 -7.894531 1.125 -7.90625 C 0.976562 -7.925781 0.785156 -7.941406 0.546875 -7.953125 L 0.546875 -8.265625 Z M 4.5 -8.265625 "/></g></g></g><g fill="#511c1f" fill-opacity="1"><g transform="translate(53.841171, 12.833255)"><g><path d="M 3.15625 -1.265625 C 3.15625 -1.054688 3.171875 -0.882812 3.203125 -0.75 C 3.234375 -0.625 3.296875 -0.523438 3.390625 -0.453125 C 3.492188 -0.390625 3.628906 -0.347656 3.796875 -0.328125 C 3.972656 -0.316406 4.203125 -0.3125 4.484375 -0.3125 C 5.078125 -0.3125 5.582031 -0.40625 6 -0.59375 C 6.425781 -0.789062 6.773438 -1.0625 7.046875 -1.40625 C 7.328125 -1.757812 7.53125 -2.164062 7.65625 -2.625 C 7.78125 -3.09375 7.84375 -3.59375 7.84375 -4.125 C 7.84375 -4.53125 7.796875 -4.9375 7.703125 -5.34375 C 7.609375 -5.757812 7.445312 -6.144531 7.21875 -6.5 C 6.945312 -6.925781 6.585938 -7.273438 6.140625 -7.546875 C 5.691406 -7.816406 5.140625 -7.953125 4.484375 -7.953125 C 4.242188 -7.953125 4.039062 -7.945312 3.875 -7.9375 C 3.707031 -7.9375 3.566406 -7.921875 3.453125 -7.890625 C 3.347656 -7.867188 3.269531 -7.832031 3.21875 -7.78125 C 3.175781 -7.738281 3.15625 -7.671875 3.15625 -7.578125 Z M 5.109375 -8.265625 C 5.648438 -8.265625 6.1875 -8.171875 6.71875 -7.984375 C 7.25 -7.796875 7.726562 -7.523438 8.15625 -7.171875 C 8.582031 -6.816406 8.929688 -6.382812 9.203125 -5.875 C 9.472656 -5.363281 9.609375 -4.78125 9.609375 -4.125 C 9.609375 -3.457031 9.488281 -2.863281 9.25 -2.34375 C 9.007812 -1.832031 8.691406 -1.398438 8.296875 -1.046875 C 7.898438 -0.703125 7.441406 -0.441406 6.921875 -0.265625 C 6.410156 -0.0859375 5.878906 0 5.328125 0 L 0.5 0 L 0.5 -0.3125 C 0.707031 -0.3125 0.875 -0.316406 1 -0.328125 C 1.132812 -0.347656 1.238281 -0.390625 1.3125 -0.453125 C 1.382812 -0.523438 1.4375 -0.625 1.46875 -0.75 C 1.5 -0.875 1.515625 -1.054688 1.515625 -1.296875 L 1.515625 -6.96875 C 1.515625 -7.195312 1.5 -7.375 1.46875 -7.5 C 1.4375 -7.632812 1.382812 -7.734375 1.3125 -7.796875 C 1.238281 -7.859375 1.132812 -7.894531 1 -7.90625 C 0.875 -7.925781 0.707031 -7.941406 0.5 -7.953125 L 0.5 -8.265625 Z M 5.109375 -8.265625 "/></g></g></g><g fill="#511c1f" fill-opacity="1"><g transform="translate(63.922566, 12.833255)"><g><path d="M 2.640625 -2.859375 L 5.921875 -2.859375 L 4.234375 -6.390625 Z M 3.78125 -7.25 C 3.976562 -7.40625 4.140625 -7.539062 4.265625 -7.65625 C 4.390625 -7.78125 4.492188 -7.882812 4.578125 -7.96875 C 4.660156 -8.050781 4.722656 -8.117188 4.765625 -8.171875 C 4.804688 -8.234375 4.835938 -8.273438 4.859375 -8.296875 C 4.921875 -8.378906 4.972656 -8.421875 5.015625 -8.421875 C 5.035156 -8.421875 5.054688 -8.40625 5.078125 -8.375 C 5.097656 -8.351562 5.140625 -8.285156 5.203125 -8.171875 L 8.546875 -1.265625 C 8.628906 -1.097656 8.703125 -0.957031 8.765625 -0.84375 C 8.835938 -0.726562 8.914062 -0.632812 9 -0.5625 C 9.09375 -0.488281 9.207031 -0.429688 9.34375 -0.390625 C 9.476562 -0.359375 9.65625 -0.332031 9.875 -0.3125 L 9.875 0 L 5.890625 0 L 5.890625 -0.3125 C 6.203125 -0.3125 6.445312 -0.34375 6.625 -0.40625 C 6.800781 -0.476562 6.890625 -0.597656 6.890625 -0.765625 C 6.890625 -0.828125 6.875 -0.894531 6.84375 -0.96875 C 6.820312 -1.050781 6.796875 -1.128906 6.765625 -1.203125 C 6.734375 -1.285156 6.695312 -1.359375 6.65625 -1.421875 C 6.625 -1.492188 6.597656 -1.550781 6.578125 -1.59375 L 6.140625 -2.46875 L 2.5 -2.46875 L 2.171875 -1.671875 C 2.140625 -1.617188 2.109375 -1.550781 2.078125 -1.46875 C 2.046875 -1.382812 2.015625 -1.300781 1.984375 -1.21875 C 1.960938 -1.132812 1.941406 -1.050781 1.921875 -0.96875 C 1.898438 -0.894531 1.890625 -0.835938 1.890625 -0.796875 C 1.890625 -0.742188 1.898438 -0.6875 1.921875 -0.625 C 1.953125 -0.570312 2.003906 -0.519531 2.078125 -0.46875 C 2.148438 -0.414062 2.25 -0.375 2.375 -0.34375 C 2.5 -0.320312 2.664062 -0.3125 2.875 -0.3125 L 2.875 0 L 0.21875 0 L 0.21875 -0.3125 C 0.46875 -0.363281 0.671875 -0.429688 0.828125 -0.515625 C 0.984375 -0.609375 1.117188 -0.734375 1.234375 -0.890625 C 1.359375 -1.054688 1.476562 -1.257812 1.59375 -1.5 C 1.71875 -1.75 1.863281 -2.054688 2.03125 -2.421875 L 4.03125 -6.875 C 4.007812 -6.9375 3.976562 -7.007812 3.9375 -7.09375 C 3.894531 -7.175781 3.84375 -7.226562 3.78125 -7.25 Z M 3.78125 -7.25 "/></g></g></g><g fill="#511c1f" fill-opacity="1"><g transform="translate(74.003961, 12.833255)"><g><path d="M 0.796875 -7.75 C 0.796875 -7.925781 0.828125 -8.082031 0.890625 -8.21875 C 0.953125 -8.351562 1.078125 -8.421875 1.265625 -8.421875 C 1.441406 -8.421875 1.5625 -8.351562 1.625 -8.21875 C 1.6875 -8.082031 1.71875 -7.925781 1.71875 -7.75 C 1.71875 -7.675781 1.707031 -7.539062 1.6875 -7.34375 C 1.675781 -7.15625 1.660156 -6.9375 1.640625 -6.6875 C 1.617188 -6.4375 1.59375 -6.175781 1.5625 -5.90625 C 1.539062 -5.644531 1.523438 -5.410156 1.515625 -5.203125 C 1.503906 -5.117188 1.476562 -5.035156 1.4375 -4.953125 C 1.40625 -4.867188 1.347656 -4.828125 1.265625 -4.828125 C 1.160156 -4.828125 1.09375 -4.867188 1.0625 -4.953125 C 1.03125 -5.046875 1.015625 -5.128906 1.015625 -5.203125 C 0.992188 -5.410156 0.96875 -5.644531 0.9375 -5.90625 C 0.914062 -6.164062 0.894531 -6.414062 0.875 -6.65625 C 0.851562 -6.90625 0.832031 -7.128906 0.8125 -7.328125 C 0.800781 -7.523438 0.796875 -7.664062 0.796875 -7.75 Z M 0.796875 -7.75 "/></g></g></g><g fill="#511c1f" fill-opacity="1"><g transform="translate(76.521472, 12.833255)"><g><path d="M 0.75 -6.09375 C 0.75 -6.46875 0.820312 -6.796875 0.96875 -7.078125 C 1.113281 -7.367188 1.304688 -7.613281 1.546875 -7.8125 C 1.796875 -8.007812 2.078125 -8.160156 2.390625 -8.265625 C 2.710938 -8.367188 3.039062 -8.421875 3.375 -8.421875 C 3.65625 -8.421875 3.910156 -8.394531 4.140625 -8.34375 C 4.378906 -8.300781 4.585938 -8.253906 4.765625 -8.203125 C 4.953125 -8.148438 5.101562 -8.097656 5.21875 -8.046875 C 5.34375 -8.003906 5.4375 -7.984375 5.5 -7.984375 C 5.601562 -7.984375 5.710938 -8.019531 5.828125 -8.09375 C 5.941406 -8.164062 6.03125 -8.25 6.09375 -8.34375 L 6.34375 -8.34375 L 6.34375 -5.484375 L 6.0625 -5.484375 C 5.96875 -5.785156 5.835938 -6.085938 5.671875 -6.390625 C 5.515625 -6.703125 5.328125 -6.984375 5.109375 -7.234375 C 4.890625 -7.492188 4.632812 -7.703125 4.34375 -7.859375 C 4.050781 -8.023438 3.738281 -8.109375 3.40625 -8.109375 C 3.226562 -8.109375 3.050781 -8.082031 2.875 -8.03125 C 2.695312 -7.976562 2.535156 -7.898438 2.390625 -7.796875 C 2.242188 -7.691406 2.128906 -7.5625 2.046875 -7.40625 C 1.960938 -7.257812 1.921875 -7.085938 1.921875 -6.890625 C 1.921875 -6.640625 1.988281 -6.425781 2.125 -6.25 C 2.269531 -6.082031 2.457031 -5.925781 2.6875 -5.78125 C 2.925781 -5.644531 3.191406 -5.519531 3.484375 -5.40625 C 3.785156 -5.289062 4.085938 -5.171875 4.390625 -5.046875 C 4.703125 -4.921875 5.003906 -4.78125 5.296875 -4.625 C 5.597656 -4.476562 5.863281 -4.300781 6.09375 -4.09375 C 6.320312 -3.894531 6.507812 -3.660156 6.65625 -3.390625 C 6.800781 -3.117188 6.875 -2.796875 6.875 -2.421875 C 6.875 -1.960938 6.800781 -1.566406 6.65625 -1.234375 C 6.507812 -0.910156 6.304688 -0.644531 6.046875 -0.4375 C 5.785156 -0.226562 5.457031 -0.078125 5.0625 0.015625 C 4.675781 0.109375 4.238281 0.15625 3.75 0.15625 C 3.519531 0.15625 3.289062 0.132812 3.0625 0.09375 C 2.832031 0.0625 2.613281 0.0234375 2.40625 -0.015625 C 2.207031 -0.0546875 2.035156 -0.09375 1.890625 -0.125 C 1.742188 -0.164062 1.632812 -0.1875 1.5625 -0.1875 C 1.53125 -0.1875 1.476562 -0.171875 1.40625 -0.140625 C 1.34375 -0.109375 1.238281 -0.015625 1.09375 0.140625 L 0.765625 0.140625 L 0.765625 -2.765625 L 1.015625 -2.765625 C 1.148438 -2.421875 1.296875 -2.085938 1.453125 -1.765625 C 1.617188 -1.453125 1.804688 -1.175781 2.015625 -0.9375 C 2.234375 -0.695312 2.476562 -0.503906 2.75 -0.359375 C 3.03125 -0.210938 3.363281 -0.140625 3.75 -0.140625 C 3.976562 -0.140625 4.207031 -0.164062 4.4375 -0.21875 C 4.664062 -0.28125 4.867188 -0.367188 5.046875 -0.484375 C 5.222656 -0.597656 5.363281 -0.734375 5.46875 -0.890625 C 5.582031 -1.054688 5.640625 -1.25 5.640625 -1.46875 C 5.640625 -1.84375 5.515625 -2.144531 5.265625 -2.375 C 5.023438 -2.613281 4.722656 -2.820312 4.359375 -3 C 4.003906 -3.175781 3.613281 -3.34375 3.1875 -3.5 C 2.769531 -3.65625 2.378906 -3.84375 2.015625 -4.0625 C 1.648438 -4.28125 1.347656 -4.546875 1.109375 -4.859375 C 0.867188 -5.179688 0.75 -5.59375 0.75 -6.09375 Z M 0.75 -6.09375 "/></g></g></g><g fill="#511c1f" fill-opacity="1"><g transform="translate(84.096055, 12.833255)"><g/></g></g><g fill="#511c1f" fill-opacity="1"><g transform="translate(4.095395, 27.953351)"><g><path d="M 0.34375 -4.125 C 0.34375 -4.71875 0.457031 -5.269531 0.6875 -5.78125 C 0.925781 -6.300781 1.242188 -6.753906 1.640625 -7.140625 C 2.035156 -7.535156 2.492188 -7.847656 3.015625 -8.078125 C 3.546875 -8.304688 4.109375 -8.421875 4.703125 -8.421875 C 5.054688 -8.421875 5.351562 -8.40625 5.59375 -8.375 C 5.84375 -8.351562 6.054688 -8.320312 6.234375 -8.28125 C 6.421875 -8.238281 6.578125 -8.191406 6.703125 -8.140625 C 6.835938 -8.097656 6.96875 -8.054688 7.09375 -8.015625 C 7.21875 -7.984375 7.347656 -7.953125 7.484375 -7.921875 C 7.628906 -7.898438 7.796875 -7.890625 7.984375 -7.890625 C 8.160156 -7.890625 8.28125 -7.921875 8.34375 -7.984375 C 8.414062 -8.054688 8.484375 -8.160156 8.546875 -8.296875 L 8.828125 -8.296875 L 8.828125 -5.5 L 8.46875 -5.5 C 8.300781 -5.875 8.097656 -6.21875 7.859375 -6.53125 C 7.628906 -6.851562 7.367188 -7.128906 7.078125 -7.359375 C 6.785156 -7.597656 6.472656 -7.78125 6.140625 -7.90625 C 5.816406 -8.039062 5.476562 -8.109375 5.125 -8.109375 C 4.09375 -8.109375 3.328125 -7.769531 2.828125 -7.09375 C 2.335938 -6.457031 2.09375 -5.492188 2.09375 -4.203125 C 2.09375 -3.660156 2.140625 -3.144531 2.234375 -2.65625 C 2.328125 -2.164062 2.476562 -1.734375 2.6875 -1.359375 C 2.894531 -0.992188 3.164062 -0.695312 3.5 -0.46875 C 3.832031 -0.25 4.226562 -0.140625 4.6875 -0.140625 C 5.300781 -0.140625 5.863281 -0.265625 6.375 -0.515625 C 6.882812 -0.773438 7.332031 -1.117188 7.71875 -1.546875 C 8.050781 -1.921875 8.316406 -2.34375 8.515625 -2.8125 L 8.78125 -2.8125 L 8.78125 0.15625 L 8.59375 0.15625 C 8.507812 0.03125 8.410156 -0.0976562 8.296875 -0.234375 C 8.191406 -0.367188 8.066406 -0.4375 7.921875 -0.4375 C 7.847656 -0.4375 7.726562 -0.40625 7.5625 -0.34375 C 7.40625 -0.28125 7.191406 -0.210938 6.921875 -0.140625 C 6.660156 -0.0664062 6.34375 0 5.96875 0.0625 C 5.601562 0.125 5.175781 0.15625 4.6875 0.15625 C 4.101562 0.15625 3.546875 0.046875 3.015625 -0.171875 C 2.492188 -0.398438 2.035156 -0.707031 1.640625 -1.09375 C 1.242188 -1.476562 0.925781 -1.929688 0.6875 -2.453125 C 0.457031 -2.984375 0.34375 -3.539062 0.34375 -4.125 Z M 0.34375 -4.125 "/></g></g></g><g fill="#511c1f" fill-opacity="1"><g transform="translate(13.541734, 27.953351)"><g><path d="M 4.71875 -8.109375 C 4.25 -8.109375 3.851562 -7.992188 3.53125 -7.765625 C 3.207031 -7.535156 2.941406 -7.226562 2.734375 -6.84375 C 2.523438 -6.46875 2.375 -6.039062 2.28125 -5.5625 C 2.195312 -5.09375 2.15625 -4.613281 2.15625 -4.125 C 2.15625 -3.675781 2.195312 -3.210938 2.28125 -2.734375 C 2.363281 -2.265625 2.503906 -1.835938 2.703125 -1.453125 C 2.898438 -1.078125 3.160156 -0.765625 3.484375 -0.515625 C 3.816406 -0.265625 4.234375 -0.140625 4.734375 -0.140625 C 5.222656 -0.140625 5.628906 -0.265625 5.953125 -0.515625 C 6.285156 -0.765625 6.550781 -1.078125 6.75 -1.453125 C 6.945312 -1.835938 7.085938 -2.265625 7.171875 -2.734375 C 7.253906 -3.210938 7.296875 -3.675781 7.296875 -4.125 C 7.296875 -4.5625 7.253906 -5.015625 7.171875 -5.484375 C 7.097656 -5.953125 6.960938 -6.378906 6.765625 -6.765625 C 6.578125 -7.148438 6.316406 -7.46875 5.984375 -7.71875 C 5.648438 -7.976562 5.226562 -8.109375 4.71875 -8.109375 Z M 0.390625 -4.125 C 0.390625 -4.726562 0.507812 -5.289062 0.75 -5.8125 C 0.988281 -6.332031 1.304688 -6.785156 1.703125 -7.171875 C 2.097656 -7.554688 2.554688 -7.859375 3.078125 -8.078125 C 3.609375 -8.304688 4.160156 -8.421875 4.734375 -8.421875 C 5.296875 -8.421875 5.835938 -8.304688 6.359375 -8.078125 C 6.878906 -7.859375 7.335938 -7.554688 7.734375 -7.171875 C 8.140625 -6.785156 8.457031 -6.332031 8.6875 -5.8125 C 8.925781 -5.289062 9.046875 -4.726562 9.046875 -4.125 C 9.046875 -3.53125 8.925781 -2.972656 8.6875 -2.453125 C 8.457031 -1.929688 8.140625 -1.476562 7.734375 -1.09375 C 7.335938 -0.707031 6.878906 -0.398438 6.359375 -0.171875 C 5.835938 0.046875 5.296875 0.15625 4.734375 0.15625 C 4.160156 0.15625 3.609375 0.046875 3.078125 -0.171875 C 2.554688 -0.398438 2.097656 -0.707031 1.703125 -1.09375 C 1.304688 -1.476562 0.988281 -1.929688 0.75 -2.453125 C 0.507812 -2.972656 0.390625 -3.53125 0.390625 -4.125 Z M 0.390625 -4.125 "/></g></g></g><g fill="#511c1f" fill-opacity="1"><g transform="translate(22.988073, 27.953351)"><g><path d="M 4.328125 -8.265625 L 4.328125 -7.953125 C 4.085938 -7.941406 3.890625 -7.925781 3.734375 -7.90625 C 3.585938 -7.894531 3.472656 -7.859375 3.390625 -7.796875 C 3.304688 -7.734375 3.25 -7.632812 3.21875 -7.5 C 3.1875 -7.375 3.171875 -7.195312 3.171875 -6.96875 L 3.171875 -1.3125 C 3.171875 -1.082031 3.191406 -0.898438 3.234375 -0.765625 C 3.273438 -0.628906 3.34375 -0.523438 3.4375 -0.453125 C 3.539062 -0.390625 3.675781 -0.347656 3.84375 -0.328125 C 4.019531 -0.316406 4.242188 -0.3125 4.515625 -0.3125 C 5.023438 -0.3125 5.457031 -0.335938 5.8125 -0.390625 C 6.175781 -0.441406 6.5 -0.546875 6.78125 -0.703125 C 7.0625 -0.859375 7.316406 -1.078125 7.546875 -1.359375 C 7.785156 -1.640625 8.035156 -2.003906 8.296875 -2.453125 L 8.578125 -2.421875 L 7.90625 0 L 0.375 0 L 0.375 -0.3125 C 0.613281 -0.3125 0.804688 -0.316406 0.953125 -0.328125 C 1.109375 -0.347656 1.226562 -0.390625 1.3125 -0.453125 C 1.394531 -0.523438 1.453125 -0.625 1.484375 -0.75 C 1.515625 -0.875 1.53125 -1.054688 1.53125 -1.296875 L 1.53125 -6.96875 C 1.53125 -7.195312 1.515625 -7.375 1.484375 -7.5 C 1.453125 -7.632812 1.394531 -7.734375 1.3125 -7.796875 C 1.226562 -7.859375 1.109375 -7.894531 0.953125 -7.90625 C 0.804688 -7.925781 0.613281 -7.941406 0.375 -7.953125 L 0.375 -8.265625 Z M 4.328125 -8.265625 "/></g></g></g><g fill="#511c1f" fill-opacity="1"><g transform="translate(31.810705, 27.953351)"><g><path d="M 4.328125 -8.265625 L 4.328125 -7.953125 C 4.085938 -7.941406 3.890625 -7.925781 3.734375 -7.90625 C 3.585938 -7.894531 3.472656 -7.859375 3.390625 -7.796875 C 3.304688 -7.734375 3.25 -7.632812 3.21875 -7.5 C 3.1875 -7.375 3.171875 -7.195312 3.171875 -6.96875 L 3.171875 -1.3125 C 3.171875 -1.082031 3.191406 -0.898438 3.234375 -0.765625 C 3.273438 -0.628906 3.34375 -0.523438 3.4375 -0.453125 C 3.539062 -0.390625 3.675781 -0.347656 3.84375 -0.328125 C 4.019531 -0.316406 4.242188 -0.3125 4.515625 -0.3125 C 5.023438 -0.3125 5.457031 -0.335938 5.8125 -0.390625 C 6.175781 -0.441406 6.5 -0.546875 6.78125 -0.703125 C 7.0625 -0.859375 7.316406 -1.078125 7.546875 -1.359375 C 7.785156 -1.640625 8.035156 -2.003906 8.296875 -2.453125 L 8.578125 -2.421875 L 7.90625 0 L 0.375 0 L 0.375 -0.3125 C 0.613281 -0.3125 0.804688 -0.316406 0.953125 -0.328125 C 1.109375 -0.347656 1.226562 -0.390625 1.3125 -0.453125 C 1.394531 -0.523438 1.453125 -0.625 1.484375 -0.75 C 1.515625 -0.875 1.53125 -1.054688 1.53125 -1.296875 L 1.53125 -6.96875 C 1.53125 -7.195312 1.515625 -7.375 1.484375 -7.5 C 1.453125 -7.632812 1.394531 -7.734375 1.3125 -7.796875 C 1.226562 -7.859375 1.109375 -7.894531 0.953125 -7.90625 C 0.804688 -7.925781 0.613281 -7.941406 0.375 -7.953125 L 0.375 -8.265625 Z M 4.328125 -8.265625 "/></g></g></g><g fill="#511c1f" fill-opacity="1"><g transform="translate(40.633337, 27.953351)"><g><path d="M 7.296875 -8.265625 L 8.15625 -6.09375 L 7.953125 -6.015625 C 7.742188 -6.265625 7.535156 -6.503906 7.328125 -6.734375 C 7.117188 -6.972656 6.898438 -7.179688 6.671875 -7.359375 C 6.453125 -7.546875 6.207031 -7.691406 5.9375 -7.796875 C 5.675781 -7.898438 5.382812 -7.953125 5.0625 -7.953125 L 3.15625 -7.953125 L 3.15625 -4.40625 L 3.828125 -4.40625 C 4.523438 -4.40625 5.085938 -4.539062 5.515625 -4.8125 C 5.941406 -5.09375 6.1875 -5.507812 6.25 -6.0625 L 6.25 -6.078125 L 6.515625 -6.078125 L 6.515625 -2.234375 L 6.25 -2.234375 L 6.25 -2.25 C 6.21875 -2.550781 6.148438 -2.816406 6.046875 -3.046875 C 5.953125 -3.285156 5.8125 -3.484375 5.625 -3.640625 C 5.445312 -3.796875 5.210938 -3.910156 4.921875 -3.984375 C 4.628906 -4.066406 4.28125 -4.109375 3.875 -4.109375 L 3.15625 -4.109375 L 3.15625 -0.796875 C 3.15625 -0.617188 3.175781 -0.492188 3.21875 -0.421875 C 3.269531 -0.347656 3.378906 -0.3125 3.546875 -0.3125 L 4.84375 -0.3125 C 5.300781 -0.3125 5.679688 -0.351562 5.984375 -0.4375 C 6.285156 -0.519531 6.550781 -0.644531 6.78125 -0.8125 C 7.007812 -0.988281 7.222656 -1.207031 7.421875 -1.46875 C 7.617188 -1.726562 7.84375 -2.035156 8.09375 -2.390625 L 8.34375 -2.25 L 7.71875 0 L 0.671875 0 L 0.671875 -0.3125 C 0.847656 -0.3125 0.988281 -0.316406 1.09375 -0.328125 C 1.207031 -0.347656 1.289062 -0.390625 1.34375 -0.453125 C 1.40625 -0.523438 1.445312 -0.625 1.46875 -0.75 C 1.5 -0.882812 1.515625 -1.066406 1.515625 -1.296875 L 1.515625 -6.96875 C 1.515625 -7.195312 1.5 -7.375 1.46875 -7.5 C 1.445312 -7.632812 1.40625 -7.734375 1.34375 -7.796875 C 1.289062 -7.859375 1.207031 -7.894531 1.09375 -7.90625 C 0.988281 -7.925781 0.847656 -7.941406 0.671875 -7.953125 L 0.671875 -8.265625 Z M 7.296875 -8.265625 "/></g></g></g><g fill="#511c1f" fill-opacity="1"><g transform="translate(49.455969, 27.953351)"><g><path d="M 0.34375 -4.125 C 0.34375 -4.71875 0.457031 -5.269531 0.6875 -5.78125 C 0.925781 -6.300781 1.242188 -6.753906 1.640625 -7.140625 C 2.035156 -7.535156 2.492188 -7.847656 3.015625 -8.078125 C 3.546875 -8.304688 4.109375 -8.421875 4.703125 -8.421875 C 5.054688 -8.421875 5.351562 -8.40625 5.59375 -8.375 C 5.84375 -8.351562 6.054688 -8.320312 6.234375 -8.28125 C 6.421875 -8.238281 6.578125 -8.191406 6.703125 -8.140625 C 6.835938 -8.097656 6.96875 -8.054688 7.09375 -8.015625 C 7.21875 -7.984375 7.347656 -7.953125 7.484375 -7.921875 C 7.628906 -7.898438 7.796875 -7.890625 7.984375 -7.890625 C 8.160156 -7.890625 8.28125 -7.921875 8.34375 -7.984375 C 8.414062 -8.054688 8.484375 -8.160156 8.546875 -8.296875 L 8.828125 -8.296875 L 8.828125 -5.5 L 8.46875 -5.5 C 8.300781 -5.875 8.097656 -6.21875 7.859375 -6.53125 C 7.628906 -6.851562 7.367188 -7.128906 7.078125 -7.359375 C 6.785156 -7.597656 6.472656 -7.78125 6.140625 -7.90625 C 5.816406 -8.039062 5.476562 -8.109375 5.125 -8.109375 C 4.09375 -8.109375 3.328125 -7.769531 2.828125 -7.09375 C 2.335938 -6.457031 2.09375 -5.492188 2.09375 -4.203125 C 2.09375 -3.660156 2.140625 -3.144531 2.234375 -2.65625 C 2.328125 -2.164062 2.476562 -1.734375 2.6875 -1.359375 C 2.894531 -0.992188 3.164062 -0.695312 3.5 -0.46875 C 3.832031 -0.25 4.226562 -0.140625 4.6875 -0.140625 C 5.300781 -0.140625 5.863281 -0.265625 6.375 -0.515625 C 6.882812 -0.773438 7.332031 -1.117188 7.71875 -1.546875 C 8.050781 -1.921875 8.316406 -2.34375 8.515625 -2.8125 L 8.78125 -2.8125 L 8.78125 0.15625 L 8.59375 0.15625 C 8.507812 0.03125 8.410156 -0.0976562 8.296875 -0.234375 C 8.191406 -0.367188 8.066406 -0.4375 7.921875 -0.4375 C 7.847656 -0.4375 7.726562 -0.40625 7.5625 -0.34375 C 7.40625 -0.28125 7.191406 -0.210938 6.921875 -0.140625 C 6.660156 -0.0664062 6.34375 0 5.96875 0.0625 C 5.601562 0.125 5.175781 0.15625 4.6875 0.15625 C 4.101562 0.15625 3.546875 0.046875 3.015625 -0.171875 C 2.492188 -0.398438 2.035156 -0.707031 1.640625 -1.09375 C 1.242188 -1.476562 0.925781 -1.929688 0.6875 -2.453125 C 0.457031 -2.984375 0.34375 -3.539062 0.34375 -4.125 Z M 0.34375 -4.125 "/></g></g></g><g fill="#511c1f" fill-opacity="1"><g transform="translate(58.902308, 27.953351)"><g><path d="M 0.5625 -8.4375 L 1 -8.4375 C 1.039062 -8.363281 1.113281 -8.316406 1.21875 -8.296875 C 1.332031 -8.273438 1.445312 -8.265625 1.5625 -8.265625 L 7.265625 -8.265625 C 7.378906 -8.265625 7.492188 -8.273438 7.609375 -8.296875 C 7.722656 -8.316406 7.800781 -8.363281 7.84375 -8.4375 L 8.265625 -8.4375 L 8.765625 -6.03125 L 8.5 -5.953125 C 8.125 -6.628906 7.695312 -7.128906 7.21875 -7.453125 C 6.75 -7.785156 6.234375 -7.953125 5.671875 -7.953125 C 5.515625 -7.953125 5.398438 -7.921875 5.328125 -7.859375 C 5.265625 -7.796875 5.234375 -7.664062 5.234375 -7.46875 L 5.234375 -1.296875 C 5.234375 -1.066406 5.25 -0.882812 5.28125 -0.75 C 5.3125 -0.625 5.375 -0.523438 5.46875 -0.453125 C 5.5625 -0.390625 5.691406 -0.347656 5.859375 -0.328125 C 6.023438 -0.316406 6.25 -0.3125 6.53125 -0.3125 L 6.53125 0 L 2.296875 0 L 2.296875 -0.3125 C 2.578125 -0.3125 2.800781 -0.316406 2.96875 -0.328125 C 3.144531 -0.347656 3.273438 -0.390625 3.359375 -0.453125 C 3.453125 -0.523438 3.515625 -0.625 3.546875 -0.75 C 3.578125 -0.882812 3.59375 -1.066406 3.59375 -1.296875 L 3.59375 -7.46875 C 3.59375 -7.664062 3.554688 -7.796875 3.484375 -7.859375 C 3.421875 -7.921875 3.316406 -7.953125 3.171875 -7.953125 C 2.023438 -7.953125 1.078125 -7.285156 0.328125 -5.953125 L 0.0625 -6.03125 Z M 0.5625 -8.4375 "/></g></g></g><g fill="#511c1f" fill-opacity="1"><g transform="translate(67.72494, 27.953351)"><g><path d="M 4.5 -8.265625 L 4.5 -7.953125 C 4.257812 -7.941406 4.0625 -7.925781 3.90625 -7.90625 C 3.757812 -7.894531 3.644531 -7.859375 3.5625 -7.796875 C 3.476562 -7.734375 3.421875 -7.632812 3.390625 -7.5 C 3.359375 -7.375 3.34375 -7.195312 3.34375 -6.96875 L 3.34375 -1.296875 C 3.34375 -1.054688 3.359375 -0.875 3.390625 -0.75 C 3.421875 -0.625 3.476562 -0.523438 3.5625 -0.453125 C 3.644531 -0.390625 3.757812 -0.347656 3.90625 -0.328125 C 4.0625 -0.316406 4.257812 -0.3125 4.5 -0.3125 L 4.5 0 L 0.546875 0 L 0.546875 -0.3125 C 0.785156 -0.3125 0.976562 -0.316406 1.125 -0.328125 C 1.28125 -0.347656 1.398438 -0.390625 1.484375 -0.453125 C 1.566406 -0.523438 1.625 -0.625 1.65625 -0.75 C 1.6875 -0.875 1.703125 -1.054688 1.703125 -1.296875 L 1.703125 -6.96875 C 1.703125 -7.195312 1.6875 -7.375 1.65625 -7.5 C 1.625 -7.632812 1.566406 -7.734375 1.484375 -7.796875 C 1.398438 -7.859375 1.28125 -7.894531 1.125 -7.90625 C 0.976562 -7.925781 0.785156 -7.941406 0.546875 -7.953125 L 0.546875 -8.265625 Z M 4.5 -8.265625 "/></g></g></g><g fill="#511c1f" fill-opacity="1"><g transform="translate(72.759963, 27.953351)"><g><path d="M 4.71875 -8.109375 C 4.25 -8.109375 3.851562 -7.992188 3.53125 -7.765625 C 3.207031 -7.535156 2.941406 -7.226562 2.734375 -6.84375 C 2.523438 -6.46875 2.375 -6.039062 2.28125 -5.5625 C 2.195312 -5.09375 2.15625 -4.613281 2.15625 -4.125 C 2.15625 -3.675781 2.195312 -3.210938 2.28125 -2.734375 C 2.363281 -2.265625 2.503906 -1.835938 2.703125 -1.453125 C 2.898438 -1.078125 3.160156 -0.765625 3.484375 -0.515625 C 3.816406 -0.265625 4.234375 -0.140625 4.734375 -0.140625 C 5.222656 -0.140625 5.628906 -0.265625 5.953125 -0.515625 C 6.285156 -0.765625 6.550781 -1.078125 6.75 -1.453125 C 6.945312 -1.835938 7.085938 -2.265625 7.171875 -2.734375 C 7.253906 -3.210938 7.296875 -3.675781 7.296875 -4.125 C 7.296875 -4.5625 7.253906 -5.015625 7.171875 -5.484375 C 7.097656 -5.953125 6.960938 -6.378906 6.765625 -6.765625 C 6.578125 -7.148438 6.316406 -7.46875 5.984375 -7.71875 C 5.648438 -7.976562 5.226562 -8.109375 4.71875 -8.109375 Z M 0.390625 -4.125 C 0.390625 -4.726562 0.507812 -5.289062 0.75 -5.8125 C 0.988281 -6.332031 1.304688 -6.785156 1.703125 -7.171875 C 2.097656 -7.554688 2.554688 -7.859375 3.078125 -8.078125 C 3.609375 -8.304688 4.160156 -8.421875 4.734375 -8.421875 C 5.296875 -8.421875 5.835938 -8.304688 6.359375 -8.078125 C 6.878906 -7.859375 7.335938 -7.554688 7.734375 -7.171875 C 8.140625 -6.785156 8.457031 -6.332031 8.6875 -5.8125 C 8.925781 -5.289062 9.046875 -4.726562 9.046875 -4.125 C 9.046875 -3.53125 8.925781 -2.972656 8.6875 -2.453125 C 8.457031 -1.929688 8.140625 -1.476562 7.734375 -1.09375 C 7.335938 -0.707031 6.878906 -0.398438 6.359375 -0.171875 C 5.835938 0.046875 5.296875 0.15625 4.734375 0.15625 C 4.160156 0.15625 3.609375 0.046875 3.078125 -0.171875 C 2.554688 -0.398438 2.097656 -0.707031 1.703125 -1.09375 C 1.304688 -1.476562 0.988281 -1.929688 0.75 -2.453125 C 0.507812 -2.972656 0.390625 -3.53125 0.390625 -4.125 Z M 0.390625 -4.125 "/></g></g></g><g fill="#511c1f" fill-opacity="1"><g transform="translate(82.206303, 27.953351)"><g><path d="M 3.5 -8.265625 L 8.8125 -2.21875 L 8.8125 -6.9375 C 8.8125 -7.15625 8.78125 -7.332031 8.71875 -7.46875 C 8.664062 -7.601562 8.585938 -7.707031 8.484375 -7.78125 C 8.378906 -7.851562 8.242188 -7.898438 8.078125 -7.921875 C 7.921875 -7.941406 7.738281 -7.953125 7.53125 -7.953125 L 7.53125 -8.265625 L 10.3125 -8.265625 L 10.3125 -7.953125 C 10.132812 -7.953125 9.976562 -7.941406 9.84375 -7.921875 C 9.707031 -7.898438 9.59375 -7.851562 9.5 -7.78125 C 9.414062 -7.71875 9.351562 -7.617188 9.3125 -7.484375 C 9.269531 -7.347656 9.25 -7.164062 9.25 -6.9375 L 9.25 0.15625 L 8.796875 0.15625 L 1.96875 -7.484375 L 1.921875 -7.484375 L 1.921875 -1.34375 C 1.921875 -0.988281 2.03125 -0.726562 2.25 -0.5625 C 2.476562 -0.394531 2.8125 -0.3125 3.25 -0.3125 L 3.25 0 L 0.390625 0 L 0.390625 -0.3125 C 0.742188 -0.320312 1.015625 -0.414062 1.203125 -0.59375 C 1.398438 -0.769531 1.5 -1.019531 1.5 -1.34375 L 1.5 -7.5625 C 1.5 -7.664062 1.410156 -7.75 1.234375 -7.8125 C 1.066406 -7.882812 0.800781 -7.929688 0.4375 -7.953125 L 0.4375 -8.265625 Z M 3.5 -8.265625 "/></g></g></g></svg>