<svg width="34" height="34" viewBox="0 0 34 34" fill="none" xmlns="http://www.w3.org/2000/svg">
<path d="M0 2.79383V0L2.67906 0.0163468L5.3596 0.0312076L5.91291 2.11172C6.21702 3.256 6.46623 4.19966 6.46623 4.20709C6.46771 4.21601 12.6625 4.22195 20.2339 4.22195H34V19.6029L33.6588 19.6683L22.0436 21.8468C15.8444 23.0104 10.7533 23.9809 10.7325 24.0046C10.5916 24.1622 8.63202 27.1685 8.56379 27.332C8.41693 27.6901 8.57714 28.1003 8.92723 28.2622C9.10672 28.347 10.0309 28.3559 18.1111 28.3559C24.2895 28.3559 27.2045 28.3752 27.4477 28.4198C28.5113 28.6145 29.4726 29.5611 29.6684 30.6073C29.8553 31.6134 29.5794 32.5065 28.8674 33.2079C28.3007 33.7637 27.7162 34 26.9092 34C26.1023 34 25.5178 33.7637 24.9511 33.2079C24.4942 32.7591 24.2302 32.2539 24.1338 31.652L24.064 31.2091H15.5462V31.441C15.5462 32.0101 15.1784 32.7651 14.6681 33.2436C14.051 33.8217 13.4591 34.0327 12.5735 33.9896C12.0647 33.9658 11.9445 33.9376 11.541 33.7444C10.6999 33.3446 10.111 32.5674 9.96562 31.6609L9.89442 31.2225L9.26396 31.1809C8.4644 31.1289 8.2048 31.068 7.65445 30.8034C6.7911 30.3873 6.00934 29.408 5.78682 28.4688C5.60881 27.7109 5.71414 26.6484 6.03159 26.0153C6.08202 25.9128 6.63089 25.0627 7.24948 24.1265L8.37539 22.422L5.77347 12.6242L3.17155 2.82504L1.58578 2.80869L0 2.79383ZM31.137 12.168L31.1518 7.07522H19.1925C7.82949 7.07522 7.23316 7.07968 7.26134 7.17925L9.11117 14.149C10.111 17.9251 10.9373 21.0206 10.9432 21.0295C10.9506 21.0369 15.4943 20.1928 21.0394 19.1526L31.1222 17.2623L31.137 12.168Z" fill="#121212"/>
</svg>
