<svg width="35" height="35" viewBox="0 0 35 35" fill="none" xmlns="http://www.w3.org/2000/svg">
<path d="M17.5 0C19.8206 0 22.0462 0.921872 23.6872 2.56282C25.3281 4.20376 26.25 6.42936 26.25 8.75C26.25 11.0706 25.3281 13.2962 23.6872 14.9372C22.0462 16.5781 19.8206 17.5 17.5 17.5C15.1794 17.5 12.9538 16.5781 11.3128 14.9372C9.67187 13.2962 8.75 11.0706 8.75 8.75C8.75 6.42936 9.67187 4.20376 11.3128 2.56282C12.9538 0.921872 15.1794 0 17.5 0ZM17.5 4.375C16.3397 4.375 15.2269 4.83594 14.4064 5.65641C13.5859 6.47688 13.125 7.58968 13.125 8.75C13.125 9.91032 13.5859 11.0231 14.4064 11.8436C15.2269 12.6641 16.3397 13.125 17.5 13.125C18.6603 13.125 19.7731 12.6641 20.5936 11.8436C21.4141 11.0231 21.875 9.91032 21.875 8.75C21.875 7.58968 21.4141 6.47688 20.5936 5.65641C19.7731 4.83594 18.6603 4.375 17.5 4.375ZM17.5 19.6875C23.3406 19.6875 35 22.5969 35 28.4375V35H0V28.4375C0 22.5969 11.6594 19.6875 17.5 19.6875ZM17.5 23.8438C11.0031 23.8438 4.15625 27.0375 4.15625 28.4375V30.8438H30.8438V28.4375C30.8438 27.0375 23.9969 23.8438 17.5 23.8438Z" fill="#121212"/>
</svg>
